<svg xmlns="http://www.w3.org/2000/svg" viewBox="0 0 1600 900" width="1600" height="900" role="img" aria-label="料理写真プレースホルダー（横長）">
  <defs>
    <linearGradient id="wide-bg" x1="0" y1="0" x2="1" y2="1">
      <stop offset="0%" stop-color="#161310"/>
      <stop offset="55%" stop-color="#0a0a0a"/>
      <stop offset="100%" stop-color="#050505"/>
    </linearGradient>
    <linearGradient id="wide-goldline" x1="0" y1="0" x2="1" y2="1">
      <stop offset="0%" stop-color="#e4c98a"/>
      <stop offset="100%" stop-color="#c9a15a"/>
    </linearGradient>
    <pattern id="wide-texture" width="46" height="46" patternUnits="userSpaceOnUse" patternTransform="rotate(45)">
      <line x1="0" y1="0" x2="0" y2="46" stroke="#ffffff" stroke-opacity="0.02" stroke-width="46"/>
    </pattern>
  </defs>
  <rect width="1600" height="900" fill="url(#wide-bg)"/>
  <rect width="1600" height="900" fill="url(#wide-texture)"/>
  
  <rect x="41" y="41" width="1518" height="818" fill="none" stroke="url(#wide-goldline)" stroke-width="1" opacity="0.55"/>
  
  <path d="M 41 86 L 41 41 L 86 41" fill="none" stroke="#e4c98a" stroke-width="1.5" opacity="0.85"/>
  <path d="M 1559 86 L 1559 41 L 1514 41" fill="none" stroke="#e4c98a" stroke-width="1.5" opacity="0.85"/>
  <path d="M 41 814 L 41 859 L 86 859" fill="none" stroke="#e4c98a" stroke-width="1.5" opacity="0.85"/>
  <path d="M 1559 814 L 1559 859 L 1514 859" fill="none" stroke="#e4c98a" stroke-width="1.5" opacity="0.85"/>
  
  
  <g transform="translate(800 450) scale(4.090909090909091)" opacity="0.8">
    <path d="M0,-38 C14,-18 20,-4 12,10 C18,4 24,-2 24,-12 C34,2 30,24 14,34 C22,30 27,20 25,10 C20,26 2,38 -14,32 C-30,26 -34,8 -24,-6 C-22,4 -16,10 -10,12 C-16,-4 -10,-24 0,-38 Z"
      fill="none" stroke="#c9a15a" stroke-width="1.6" stroke-linejoin="round"/>
  </g>
</svg>